<svg width="233px" height="150px" viewBox="19 0 233 150" version="1.1" xmlns="http://www.w3.org/2000/svg">
    <!-- Generator: Sketch 42 (36781) - http://www.bohemiancoding.com/sketch -->
    <desc>Created with Sketch.</desc>
    <defs></defs>
    <g id="Group-4" stroke="none" stroke-width="1" fill="none" fill-rule="evenodd" transform="translate(19.000000, 0.000000)">
        <circle id="Oval" fill="#FFFFFF" cx="116" cy="75" r="75"></circle>
        <g id="Logo" transform="translate(0.000000, 18.000000)">
            <path d="M71.7694691,36.1178639 C72.101363,35.3665714 71.5387167,34.4850748 70.8532023,34.1827619 L70.7205945,34.1243946 L70.6127103,34.3675918 C70.2913051,35.0964354 69.8777489,36.3011973 70.6636556,36.6469116 C71.0397521,36.8122857 71.5154916,36.6925578 71.7694691,36.1178639 Z M69.6702215,33.8991565 L69.7481379,33.7225578 L69.7046846,33.7023537 C68.8963019,33.3469116 68.4565238,33.535483 68.1388646,34.2538503 C68.0264852,34.5075238 67.8729,35.0343265 68.1830672,35.170517 L68.4819965,35.3022177 L67.9058646,36.6065034 L67.3080061,36.343102 C66.2576331,35.8799048 66.8008003,34.350381 67.0600222,33.7652109 C67.8893823,31.8862313 69.1188132,31.768 70.3797103,32.3239864 L72.4812055,33.250381 C72.6362891,33.3184762 72.7636524,33.2690884 72.8318293,33.1141905 L73.0273695,32.6726939 L74.2110994,33.1942585 L73.6544466,34.4536463 C73.4251926,34.972966 73.0490961,35.045551 72.7172023,34.8996327 C72.5741058,34.8360272 72.4789579,34.7806531 72.4789579,34.7806531 L72.4692183,34.803102 C72.4692183,34.803102 73.2746042,35.6726259 72.7134563,36.9432381 C72.2684338,37.9489524 71.2330447,38.588 70.1047553,38.0911293 C68.3344048,37.3106531 69.2649064,34.8158231 69.6702215,33.8991565 Z" id="Fill-1" fill="#4C8F22"></path>
            <path d="M71.3392807,25.8418435 C71.7693193,25.170619 72.8204415,24.1364694 73.7164801,24.7096667 L74.3278241,25.1002789 L73.5973579,26.2391905 L73.3119141,26.0566054 C73.0272196,25.8747687 72.6308949,26.2234762 72.4286119,26.5385102 C71.8547277,27.4342245 72.1259367,28.5110272 73.063181,29.110415 C74.1217952,29.7876259 75.1631778,29.3498707 75.6988531,28.515517 C76.2659945,27.6310272 75.9805508,26.5302789 75.9805508,26.5302789 L77.2219688,26.5647007 C77.2219688,26.5647007 77.6632453,27.9363333 76.7574672,29.350619 C75.6613932,31.0589864 73.7449495,31.3822517 72.2383161,30.4184422 C70.7721392,29.4808231 70.198255,27.6220476 71.3392807,25.8418435" id="Fill-3" fill="#4C8F22"></path>
            <path d="M75.4390318,22.4971701 L74.9258325,23.1077823 L73.9900865,22.3228163 L74.5272601,21.6852653 L73.239392,20.6054694 L74.2043566,19.4583265 L75.4914756,20.5381224 L76.3935077,19.4650612 L77.3285045,20.2500272 L76.4264723,21.3223401 L78.3339257,22.9229524 C79.1123405,23.5754694 79.7364209,23.0576463 80.0083791,22.734381 C80.1177617,22.6049252 80.1687071,22.5061497 80.1687071,22.5061497 L81.1973534,23.3681905 C81.1973534,23.3681905 81.0999579,23.539551 80.9216492,23.752068 C80.3694916,24.4090748 79.0778775,25.5502313 77.494826,24.222 L75.4390318,22.4971701 Z" id="Fill-5" fill="#4C8F22"></path>
            <path d="M79.4370421,18.5638844 C79.310428,18.4336803 79.1823154,18.4411633 79.0609457,18.5593946 L78.714817,18.8968776 L77.8022961,17.9637483 L78.8489232,16.9423197 C79.2549875,16.5457211 79.6056113,16.5584422 80.0034344,16.9640204 L82.6480968,19.6683741 C82.7664698,19.7895986 82.9035727,19.7910952 83.0241932,19.6728639 L83.3703219,19.335381 L84.2746016,20.2602789 L83.2279746,21.2809592 C82.8219103,21.6783061 82.4795277,21.6738163 82.0742125,21.2592585 L79.4370421,18.5638844 Z M76.7002286,15.6619796 L77.6517077,14.7333401 L78.6406466,15.7442925 L77.6891675,16.672932 L76.7002286,15.6619796 Z" id="Fill-7" fill="#4C8F22"></path>
            <path d="M86.2683624,13.6498776 C85.800864,13.0781769 85.0898768,12.9831429 84.5894138,13.3640272 C83.9645842,13.8406939 83.8087514,14.5515782 84.1428929,15.2691973 L86.2683624,13.6498776 Z M83.8701855,12.4226667 C85.2741791,11.3533469 86.8287611,11.7940952 87.8191984,13.0901497 C87.928581,13.2345714 88.1353592,13.5638231 88.1353592,13.5638231 L84.750491,16.1432109 C85.5071791,16.9341633 86.4863785,16.9019864 87.2265842,16.3377687 C88.0147386,15.7368844 88.1833077,14.7431429 88.1833077,14.7431429 L89.3385682,15.1996054 C89.3385682,15.1996054 89.1535167,16.5106259 87.932327,17.4415102 C86.3073206,18.6791973 84.402864,18.2773605 83.3390055,16.8847755 C82.187491,15.3777007 82.3995135,13.543619 83.8701855,12.4226667 L83.8701855,12.4226667 Z" id="Fill-9" fill="#4C8F22"></path>
            <path d="M89.2377264,10.417 L88.5776846,10.7978844 L87.9678389,9.74128571 L88.6271315,9.36040136 L88.5364788,9.2040068 C87.5273116,7.45672789 88.8286653,6.39938095 89.572617,5.97060544 C89.8445752,5.81421088 90.0408646,5.74237415 90.0408646,5.74237415 L90.6934145,6.87230612 C90.6934145,6.87230612 90.5668003,6.91720408 90.4094691,7.0084966 C90.0326235,7.2255034 89.4377617,7.69393878 89.8850318,8.46842857 L89.9577039,8.59339456 L91.0994788,7.93563946 L91.7093244,8.9922381 L90.5675495,9.6507415 L93.040646,13.9287687 L91.7108228,14.6957755 L89.2377264,10.417 Z" id="Fill-11" fill="#4C8F22"></path>
            <path d="M101.728175,8.91269388 C102.686396,8.61337415 103.250541,7.62636735 102.90666,6.53160544 C102.566525,5.44806803 101.535631,4.94820408 100.577409,5.24902041 C99.6319238,5.54459864 99.0707759,6.54282993 99.4109109,7.62636735 C99.754792,8.72112925 100.782689,9.20976871 101.728175,8.91269388 M100.187078,4.00459864 C101.986647,3.44038095 103.819181,4.2702449 104.384075,6.06840816 C104.951966,7.87779592 103.918824,9.59364626 102.119255,10.1571156 C100.330924,10.7175918 98.502136,9.89820408 97.9342453,8.08956463 C97.3693514,6.29140136 98.3987469,4.56507483 100.187078,4.00459864" id="Fill-13" fill="#4C8F22"></path>
            <path d="M106.733329,4.05712925 C106.710104,3.87753741 106.603718,3.80570068 106.435149,3.82740136 L105.955664,3.8895102 L105.788593,2.59644898 L107.191837,2.41536054 C107.731259,2.34576871 108.02794,2.56277551 108.083381,2.99454422 L108.106606,3.17413605 C108.123837,3.30583673 108.116345,3.44053061 108.116345,3.44053061 L108.14032,3.43678912 C108.338107,2.88828571 108.900005,2.04944218 110.135429,1.88930612 C111.490725,1.71495238 112.361291,2.32107483 112.569567,3.93814966 L112.877487,6.32223129 C112.899214,6.48985034 113.007847,6.57291156 113.175667,6.55121088 L113.655152,6.48985034 L113.820725,7.77093878 L112.370281,7.95801361 C111.794149,8.03209524 111.523689,7.82406803 111.449519,7.24862585 L111.086908,4.4454966 C110.991011,3.70318367 110.734786,3.22502041 109.967609,3.32379592 C109.151734,3.42855782 108.60632,4.02270748 108.48495,4.78148299 C108.433255,5.04338776 108.433255,5.324 108.470715,5.61134694 L108.832577,8.41372789 L107.321448,8.60903401 L106.733329,4.05712925 Z" id="Fill-15" fill="#4C8F22"></path>
            <path d="M115.795006,2.89741497 L114.997113,2.88394558 L115.017341,1.66421769 L115.851196,1.67843537 L115.878916,0 L117.378058,0.0246938776 L117.351836,1.70238095 L118.753582,1.72557823 L118.733354,2.94530612 L117.330109,2.92285714 L117.290402,5.41020408 C117.27317,6.42489796 118.069566,6.58278912 118.491363,6.58952381 C118.66218,6.59251701 118.770814,6.57081633 118.770814,6.57081633 L118.748338,7.91102041 C118.748338,7.91102041 118.554296,7.94394558 118.276344,7.93945578 C117.418514,7.9252381 115.71709,7.64387755 115.750804,5.57857143 L115.795006,2.89741497 Z" id="Fill-17" fill="#4C8F22"></path>
            <path d="M121.080735,6.09340136 C121.080735,6.09340136 121.740028,7.09537415 122.782159,7.23455782 C123.250407,7.29741497 123.634745,7.1537415 123.689436,6.74666667 C123.804812,5.88462585 120.579523,5.46557823 120.845487,3.49081633 C121.007314,2.26959184 122.187298,1.85428571 123.455687,2.02414966 C124.282799,2.13414966 125.564674,2.58612245 125.432066,3.57986395 L125.346658,4.21442177 L124.004098,4.03482993 L124.043806,3.7355102 C124.082764,3.44816327 123.669957,3.24687075 123.334317,3.20197279 C122.795645,3.13013605 122.397822,3.27231293 122.349873,3.6314966 C122.221761,4.58857143 125.496497,4.83176871 125.223041,6.86639456 C125.068706,8.01578231 123.953902,8.59721088 122.624828,8.41911565 C120.94588,8.19537415 120.228899,6.99061224 120.228899,6.99061224 L121.080735,6.09340136 Z" id="Fill-19" fill="#4C8F22"></path>
            <path d="M130.240857,8.74133333 C131.052985,8.98004082 131.931792,8.51983673 132.276423,7.3494966 C132.607567,6.22555102 132.219484,5.31861224 131.349667,5.06269388 C130.583988,4.83820408 129.700686,5.18242177 129.31485,6.49269388 C129.04514,7.40786395 129.266152,8.45473469 130.240857,8.74133333 L130.240857,8.74133333 Z M128.324413,4.58976871 C128.375358,4.41616327 128.306432,4.30765986 128.144606,4.25976871 L127.680104,4.12357823 L128.048709,2.87167347 L129.359802,3.25704762 C129.905217,3.41718367 130.030332,3.718 129.935185,4.0435102 C129.894728,4.18194558 129.867008,4.27473469 129.867008,4.27473469 L129.890233,4.28146939 C129.890233,4.28146939 130.665651,3.48976871 132.046419,3.89534694 C133.647451,4.36602721 134.307493,5.93221769 133.768821,7.76330612 C133.215165,9.64078912 131.696545,10.5162993 130.142712,10.0598367 C128.970969,9.71487075 128.677284,8.78473469 128.677284,8.78473469 L128.654059,8.7787483 C128.654059,8.7787483 128.61585,8.9935102 128.526696,9.29507483 L127.806718,11.740517 L126.345037,11.3109932 L128.324413,4.58976871 Z" id="Fill-21" fill="#4C8F22"></path>
            <path d="M136.863601,11.3731769 C137.603806,11.7301156 138.505089,11.1995714 138.83099,10.5253537 L138.894671,10.3951497 L138.655678,10.2799116 C137.93645,9.93344898 136.745977,9.47997959 136.372128,10.2514762 C136.193819,10.6211361 136.297208,11.1007959 136.863601,11.3731769 M139.15689,9.35501361 L139.329954,9.43882313 L139.350932,9.39542177 C139.73452,8.60147619 139.562205,8.1562381 138.853466,7.81426531 C138.603234,7.69378912 138.081794,7.52317687 137.9357,7.82698639 L137.792604,8.12106803 L136.508482,7.50147619 L136.792427,6.91406122 C137.291392,5.88065986 138.80252,6.47630612 139.379401,6.75467347 C141.229916,7.64739456 141.307083,8.87759864 140.706977,10.1167823 L139.708298,12.1820884 C139.634877,12.3347415 139.679829,12.463449 139.831916,12.5367823 L140.267199,12.7470544 L139.704552,13.9106599 L138.463884,13.3120204 C137.952183,13.0650816 137.892996,12.6871905 138.050327,12.3616803 C138.119253,12.2202517 138.176941,12.1274626 138.176941,12.1274626 L138.156713,12.1169864 C138.156713,12.1169864 137.257678,12.8907279 136.005771,12.2868503 C135.015334,11.8086871 134.41298,10.753585 134.947906,9.64460544 C135.789253,7.90480952 138.25261,8.9187551 139.15689,9.35501361" id="Fill-23" fill="#4C8F22"></path>
            <path d="M143.994899,11.1605102 C144.099786,11.0130952 144.069819,10.8881293 143.931967,10.790102 L143.537889,10.5102381 L144.294577,9.44765306 L145.44759,10.2655442 C145.891114,10.5805782 145.96079,10.9405102 145.708311,11.2952041 L145.602674,11.4433673 C145.526256,11.5511224 145.42961,11.6454082 145.42961,11.6454082 L145.449838,11.6596259 C145.967532,11.3902381 146.950478,11.1545238 147.965639,11.8751361 C149.079693,12.6653401 149.3067,13.7009864 148.361214,15.029966 L146.967709,16.9890136 C146.869565,17.1267007 146.89279,17.2621429 147.030642,17.3601701 L147.424719,17.6392857 L146.675523,18.6921429 L145.482803,17.8458163 C145.009311,17.5105782 144.952372,17.1738435 145.288761,16.7009184 L146.928002,14.3976531 C147.361786,13.7870408 147.498889,13.2617347 146.868066,12.8142517 C146.196786,12.3383333 145.393648,12.404932 144.789796,12.8793537 C144.572529,13.0372449 144.382233,13.2430272 144.214414,13.4787415 L142.574423,15.7827551 L141.333005,14.9012585 L143.994899,11.1605102 Z" id="Fill-25" fill="#4C8F22"></path>
            <path d="M151.340468,16.7482857 C151.470078,16.6218231 151.461837,16.4931156 151.344214,16.3726395 L151.005577,16.0276735 L151.937577,15.1147483 L152.928014,16.1219592 C153.309355,16.5103265 153.315349,16.8777415 153.004432,17.1822993 L152.874821,17.3087619 C152.780423,17.4022993 152.667294,17.4778776 152.667294,17.4778776 L152.685275,17.4950884 C153.242677,17.321483 154.251844,17.261619 155.124657,18.1498503 C156.081381,19.1233878 156.123336,20.1829796 154.957586,21.3256327 L153.240429,23.0093061 C153.120558,23.1275374 153.119808,23.2644762 153.237432,23.3849524 L153.576069,23.7299184 L152.653808,24.6353605 L151.628908,23.5922313 C151.222095,23.1791701 151.225091,22.8371973 151.638648,22.4308707 L153.65848,20.4508707 C154.193406,19.9263129 154.419664,19.4324354 153.877995,18.8809388 C153.301114,18.2950204 152.498725,18.2194422 151.819953,18.5808707 C151.578712,18.6976054 151.356201,18.8667211 151.147924,19.0695102 L149.12959,21.0502585 L148.061236,19.9644762 L151.340468,16.7482857 Z" id="Fill-27" fill="#4C8F22"></path>
            <path d="M159.059286,26.942068 C159.650401,26.5005714 159.775517,25.7941769 159.416652,25.2793469 C158.965636,24.6350612 158.261392,24.4502313 157.528678,24.7540408 L159.059286,26.942068 Z M160.386861,24.6013878 C161.398276,26.047102 160.89107,27.5788707 159.553006,28.5127483 C159.404665,28.6167619 159.066028,28.8083265 159.066028,28.8083265 L156.628144,25.3227483 C155.805527,26.0448571 155.797286,27.0228844 156.329964,27.7861497 C156.897855,28.5980544 157.886794,28.8075782 157.886794,28.8075782 L157.380337,29.9405034 C157.380337,29.9405034 156.078234,29.7010476 155.197929,28.4439048 C154.026935,26.7707075 154.508668,24.8864898 155.947125,23.8837687 C157.502456,22.7979864 159.327498,23.0868299 160.386861,24.6013878 L160.386861,24.6013878 Z" id="Fill-29" fill="#4C8F22"></path>
            <path d="M162.004825,30.3335102 C162.168899,30.2556871 162.204111,30.1322177 162.13069,29.9795646 L161.924661,29.5433061 L163.103896,28.9843265 L163.709246,30.2609252 C163.942246,30.7518095 163.827619,31.0997687 163.434291,31.2868435 L163.270217,31.3639184 C163.149597,31.4215374 163.019237,31.4559592 163.019237,31.4559592 L163.029725,31.4776599 C163.613349,31.495619 164.585806,31.7694966 165.119983,32.8926939 C165.705105,34.1258912 165.397185,35.1398367 163.924266,35.838 L161.750098,36.8676599 C161.597262,36.9402449 161.552311,37.0689524 161.623484,37.2216054 L161.83251,37.6578639 L160.662266,38.2116054 L160.035938,36.8916054 C159.786455,36.3677959 159.901832,36.0467755 160.426269,35.7983401 L162.981777,34.5875918 C163.658301,34.2665714 164.034397,33.8744626 163.704002,33.1762993 C163.351131,32.4347347 162.616169,32.1009932 161.857983,32.2207211 C161.591269,32.252898 161.325304,32.3389524 161.063086,32.4631701 L158.507577,33.6739184 L157.855028,32.2992925 L162.004825,30.3335102 Z" id="Fill-31" fill="#4C8F22"></path>
            <path d="M69.9155084,77.6776599 C71.189891,77.0939864 71.2393379,76.3015374 70.8909617,75.5435102 C70.5036273,74.6986803 69.6757656,74.5190884 68.7310293,74.9516054 C67.7525791,75.3998367 67.2536145,76.2259592 67.6671707,77.1261633 C67.9743412,77.7958912 68.6516145,78.2568435 69.9155084,77.6776599 M71.9675566,74.7585442 C72.5616691,76.053102 71.9668074,76.8448027 71.9668074,76.8448027 L71.9772961,76.8665034 C71.9772961,76.8665034 72.0432254,76.8365714 72.1203926,76.8014014 C72.3728717,76.685415 72.7167527,76.7392925 72.9182865,77.1800408 L73.5131482,78.4745986 L72.3264215,79.0186122 L72.129383,78.590585 C72.0642029,78.4476599 71.9420839,78.3833061 71.7989875,78.4491565 L67.9413765,80.2158912 C66.0174408,81.0958912 64.6067045,79.9352789 63.9369232,78.4753469 C63.6140196,77.7719456 63.4694248,76.9353469 63.5091322,76.2671156 L64.8037431,76.1915374 C64.8037431,76.1915374 64.7475534,77.0543265 65.1408814,77.910381 C65.528965,78.7559592 66.2287141,79.325415 67.2401289,78.862966 L67.5045952,78.7417415 C67.6357045,78.6811293 67.805772,78.6167755 67.805772,78.6167755 L67.7960325,78.5950748 C67.1719521,78.4813333 66.6977109,78.1146667 66.3545791,77.3678639 C65.6196177,75.7657551 66.4976756,74.2601769 68.0372736,73.5552789 C69.5761225,72.8511293 71.2266016,73.1444626 71.9675566,74.7585442" id="Fill-33" fill="#4C8F22"></path>
            <path d="M71.2409113,84.3962653 C71.6956733,85.0794626 72.7423003,85.0817075 73.3663807,84.6671497 L73.4870013,84.5870816 L73.3401588,84.365585 C72.8981331,83.7018435 72.1047344,82.7058571 71.3900013,83.1810272 C71.0476186,83.4077619 70.892535,83.8732041 71.2409113,84.3962653 M74.2429402,83.8245646 L74.349326,83.985449 L74.3897826,83.9585102 C75.1247441,83.470619 75.2026605,82.9984422 74.7681267,82.3451769 C74.6137923,82.1139524 74.2526797,81.7016395 73.9702328,81.887966 L73.6990238,82.0690544 L72.9093711,80.8822517 L73.4525383,80.5208231 C74.4092617,79.8862653 75.4064418,81.1666054 75.7615608,81.7001429 C76.8988405,83.4092585 76.3376926,84.5070136 75.1891749,85.2695306 L73.2764772,86.5393946 C73.1356283,86.632932 73.1086572,86.7668776 73.2023068,86.9075578 L73.4697698,87.3093946 L72.3924257,88.0247687 L71.6289949,86.8783741 C71.3143325,86.4061973 71.4566797,86.0507551 71.7586058,85.8502109 C71.8889659,85.7634082 71.9871106,85.7132721 71.9871106,85.7132721 L71.9728759,85.693068 C71.9728759,85.693068 70.8063775,85.9025918 70.0369531,84.7457211 C69.4271074,83.830551 69.4465865,82.6145646 70.4729852,81.9336122 C72.0837569,80.8642925 73.6870367,82.9894626 74.2429402,83.8245646" id="Fill-35" fill="#4C8F22"></path>
            <path d="M75.5392743,88.754585 C75.5392743,88.754585 75.3819431,89.9428844 76.0794447,90.7293469 C76.3918595,91.0825442 76.7769463,91.2254694 77.0848659,90.9538367 C77.7366666,90.376898 75.5707405,87.9516599 77.0646376,86.6309116 C77.9883965,85.8137687 79.1518981,86.269483 80.0014865,87.2280544 C80.5551424,87.8521361 81.2286698,89.0307075 80.477226,89.6951973 L79.9977405,90.1202313 L79.0994543,89.1077823 L79.3257116,88.9072381 C79.5429785,88.7149252 79.3624222,88.2928844 79.1384125,88.0399592 C78.7780492,87.6328844 78.3847212,87.4809796 78.112763,87.7211837 C77.3882904,88.3617279 79.7063032,90.684449 78.1667051,92.0456054 C77.2976376,92.8148571 76.0727019,92.5267619 75.1826569,91.5225442 C74.0603611,90.2571701 74.3068466,88.8765578 74.3068466,88.8765578 L75.5392743,88.754585 Z" id="Fill-37" fill="#4C8F22"></path>
            <path d="M82.0640235,91.3399592 L81.4714093,90.8071701 L82.2880331,89.9009796 L82.9083675,90.4584626 L84.0329109,89.2110476 L85.1469656,90.2130204 L84.0224222,91.4604354 L85.0638048,92.3973061 L84.247181,93.3034966 L83.2050492,92.3658776 L81.538837,94.2149252 C80.8593161,94.9684626 81.3552839,95.6090068 81.6699463,95.8918639 C81.7950621,96.0048571 81.8924576,96.0602313 81.8924576,96.0602313 L80.9941714,97.0562177 C80.9941714,97.0562177 80.8263514,96.9537007 80.6195733,96.7673741 C79.9820074,96.1941769 78.8851842,94.8659456 80.2682003,93.331932 L82.0640235,91.3399592 Z" id="Fill-39" fill="#4C8F22"></path>
            <path d="M85.3175576,94.6104762 C85.3587633,94.4473469 85.304072,94.335102 85.1654707,94.2378231 L85.0568373,94.1614966 L85.8067826,93.0936735 L86.5297569,93.6010204 C86.9448116,93.8921088 87.053445,94.1592517 86.938818,94.5955102 L86.0270463,97.9112245 C85.9281524,98.2838776 85.7078887,98.7642857 85.7078887,98.7642857 L85.728117,98.7792517 C85.728117,98.7792517 86.1057119,98.4088435 86.4128823,98.1821088 L89.2246154,96.1983673 C89.5969659,95.942449 89.895146,95.9596599 90.3012103,96.2440136 L90.9739884,96.7161905 L90.2240431,97.7840136 L90.1049209,97.7002041 C89.9663196,97.6029252 89.8427023,97.5902041 89.7026026,97.6837415 L85.590265,100.467415 L84.0956186,99.4197959 L85.3175576,94.6104762 Z" id="Fill-41" fill="#4C8F22"></path>
            <path d="M91.6996598,98.8697211 C91.7835698,98.7088367 91.7371196,98.5891088 91.5872804,98.5112857 L91.1594894,98.2867959 L91.7655891,97.1314218 L93.0077563,97.7816939 C93.4894894,98.0338707 93.6295891,98.3668639 93.3875987,98.8263197 L93.2190296,99.1473401 C93.1126437,99.3508776 93.018245,99.4780884 93.018245,99.4780884 L93.0399717,99.4893129 C93.6955183,98.8382925 94.6747177,98.5591769 95.5093222,98.996932 C95.6276952,99.0582925 95.7445698,99.1473401 95.7445698,99.1473401 L95.0433222,100.483803 C95.0433222,100.483803 94.9152096,100.389517 94.7226662,100.288497 C94.1442868,99.9861837 93.3059363,99.9704694 92.6331582,100.654415 C92.4181389,100.881898 92.2181035,101.158769 92.0495344,101.479789 L90.9160006,103.640129 L89.5666984,102.933735 L91.6996598,98.8697211 Z" id="Fill-43" fill="#4C8F22"></path>
            <path d="M98.3293714,97.6701973 L99.561799,98.1685646 L99.0313682,99.4780884 L97.7989405,98.9789728 L98.3293714,97.6701973 Z M96.765799,101.336864 C96.8339759,101.168497 96.7762878,101.054007 96.6189566,100.990401 L96.1709373,100.809313 L96.6609116,99.6008095 L98.0162074,100.149313 C98.5428923,100.361082 98.671754,100.686592 98.4582331,101.212646 L97.0392556,104.715435 C96.9763232,104.872578 97.0295161,104.999041 97.1860981,105.061898 L97.6348666,105.242238 L97.1493875,106.440265 L95.7933424,105.891762 C95.2666576,105.679245 95.1333006,105.364959 95.3513167,104.82768 L96.765799,101.336864 Z" id="Fill-45" fill="#4C8F22"></path>
            <path d="M102.129519,99.0718367 L103.412143,99.4684354 L102.993342,100.818367 L101.711468,100.422517 L102.129519,99.0718367 Z M98.000699,108.02449 C98.4165029,108.153197 99.2181428,108.261701 99.5148244,107.303878 L100.891847,102.861973 C100.94504,102.689116 100.878361,102.580612 100.716535,102.529728 L100.254281,102.386803 L100.640866,101.140136 L102.038866,101.572653 C102.593271,101.744762 102.749104,102.057551 102.581284,102.600068 L100.946538,107.873333 C100.335194,109.846599 98.6075479,109.577959 97.7991653,109.327279 C97.5332006,109.245714 97.3706251,109.157415 97.3706251,109.157415 L97.7534643,107.922721 C97.7534643,107.922721 97.8501106,107.977347 98.000699,108.02449 L98.000699,108.02449 Z" id="Fill-47" fill="#4C8F22"></path>
            <path d="M110.913919,108.427 C111.912597,108.526524 112.819874,107.840333 112.933751,106.69768 C113.04688,105.567748 112.293938,104.704211 111.295259,104.604687 C110.308568,104.505912 109.400542,105.204823 109.287414,106.334755 C109.173536,107.477408 109.927227,108.328973 110.913919,108.427 M111.42487,103.306388 C113.302356,103.493463 114.661398,104.975844 114.474099,106.851082 C114.28605,108.738293 112.661793,109.912374 110.784308,109.725299 C108.918809,109.539721 107.559018,108.068565 107.747067,106.182102 C107.934366,104.306864 109.559372,103.12081 111.42487,103.306388" id="Fill-49" fill="#4C8F22"></path>
            <path d="M116.843057,105.341762 C116.830321,105.161422 116.72843,105.08285 116.559861,105.094823 L116.078128,105.127748 L115.988224,103.826456 L117.400459,103.730673 C117.943626,103.694007 118.226073,103.928973 118.255292,104.362986 L118.267279,104.544075 C118.276269,104.676524 118.261285,104.810469 118.261285,104.810469 L118.285259,104.808973 C118.515263,104.27319 119.128105,103.468769 120.370272,103.384959 C121.732311,103.292918 122.565417,103.950673 122.676298,105.577476 L122.838874,107.974279 C122.849362,108.143395 122.952002,108.233939 123.12207,108.221966 L123.603803,108.189041 L123.691459,109.478361 L122.231276,109.577136 C121.652896,109.616048 121.395173,109.391558 121.355465,108.813871 L121.165169,105.994279 C121.114973,105.247476 120.886468,104.753599 120.114796,104.806728 C119.294427,104.862102 118.715298,105.42183 118.546729,106.170878 C118.48005,106.429789 118.462819,106.709653 118.482298,106.998497 L118.672594,109.818088 L117.153224,109.920605 L116.843057,105.341762 Z" id="Fill-51" fill="#4C8F22"></path>
            <path d="M125.240122,104.124279 L124.457961,104.285163 L124.210727,103.090878 L125.0281,102.92251 L124.687965,101.277748 L126.156389,100.974687 L126.497273,102.618701 L127.87055,102.335095 L128.117785,103.530129 L126.744508,103.812986 L127.247968,106.250197 C127.453997,107.243939 128.265376,107.224483 128.679682,107.139177 C128.845254,107.104755 128.946395,107.059109 128.946395,107.059109 L129.219103,108.371626 C129.219103,108.371626 129.036299,108.446456 128.764341,108.502578 C127.922994,108.676184 126.20209,108.772714 125.783289,106.750061 L125.240122,104.124279 Z" id="Fill-53" fill="#4C8F22"></path>
            <path d="M130.533493,103.442503 C130.466065,103.274136 130.344695,103.231483 130.188113,103.29434 L129.739345,103.473932 L129.254615,102.262435 L130.568705,101.738626 C131.074412,101.536585 131.414547,101.674272 131.577123,102.077605 L131.643052,102.245973 C131.692499,102.368694 131.730708,102.496653 131.730708,102.496653 L131.753184,102.488422 C131.798136,101.82019 132.232669,100.91849 133.130206,100.560054 C133.994779,100.215837 134.716255,100.395429 135.272907,101.070395 L135.296132,101.061415 C135.353071,100.32434 135.869268,99.4675374 136.778042,99.1046122 C137.969264,98.6301905 138.921493,99.0297823 139.523097,100.531619 L140.41539,102.763048 C140.477573,102.92019 140.604187,102.974068 140.760769,102.911211 L141.199049,102.736109 L141.678534,103.936381 L140.33148,104.47366 C139.792808,104.688422 139.478895,104.554476 139.263126,104.015701 L138.204512,101.369714 C137.94529,100.719442 137.624634,100.275701 136.961595,100.53985 C136.255104,100.821959 135.986891,101.617401 136.116502,102.397878 C136.138978,102.649306 136.210901,102.893252 136.319534,103.162639 L137.323457,105.673932 L135.896988,106.242639 L134.534949,102.834136 C134.288464,102.217537 133.986538,101.726653 133.301772,101.999782 C132.583293,102.286381 132.338306,103.073592 132.452184,103.873524 C132.484399,104.120463 132.545833,104.368898 132.647724,104.627061 L133.651647,107.139102 L132.237914,107.70332 L130.533493,103.442503 Z" id="Fill-55" fill="#4C8F22"></path>
            <path d="M145.989334,99.7272721 C146.824688,99.1712857 147.090652,98.0652993 146.452337,97.1104694 C145.822263,96.1661156 144.693974,95.974551 143.857122,96.5312857 C143.032257,97.0797891 142.773784,98.1955034 143.404607,99.1398571 C144.040675,100.094687 145.164469,100.275776 145.989334,99.7272721 M143.132649,95.4455034 C144.702964,94.4008776 146.694328,94.6859796 147.740955,96.2536667 C148.793575,97.8310816 148.284122,99.7676803 146.714556,100.812306 C145.15473,101.850197 143.16936,101.574823 142.11599,99.9974082 C141.070861,98.4297211 141.572823,96.4841429 143.132649,95.4455034" id="Fill-57" fill="#4C8F22"></path>
            <path d="M151.758294,91.611068 C151.23985,91.0857619 150.522121,91.0580748 150.059867,91.4838571 C149.482986,92.0166463 149.393831,92.7387551 149.794651,93.4219524 L151.758294,91.611068 Z M149.256728,90.6143333 C150.553587,89.4178027 152.142632,89.7118844 153.248445,90.9099116 C153.371314,91.0431088 153.608059,91.3521565 153.608059,91.3521565 L150.480915,94.236102 C151.308777,94.9522245 152.279735,94.8280068 152.963751,94.1979388 C153.692719,93.5252177 153.766889,92.5202517 153.766889,92.5202517 L154.95886,92.8667143 C154.95886,92.8667143 154.897426,94.1889592 153.769886,95.2298435 C152.268497,96.6141973 150.334822,96.3919524 149.145847,95.1056259 C147.857979,93.7122925 147.896937,91.8677347 149.256728,90.6143333 L149.256728,90.6143333 Z" id="Fill-59" fill="#4C8F22"></path>
            <path d="M153.600493,88.1439728 L153.086544,88.7530884 L152.153046,87.9666259 L152.690219,87.3298231 L151.406097,86.247034 L152.373309,85.1028844 L153.657432,86.1856735 L154.56246,85.1148571 L155.49521,85.902068 L154.590181,86.9721361 L156.493888,88.5764898 C157.270055,89.2305034 157.895634,88.7156735 158.169091,88.3924082 C158.277724,88.2629524 158.329419,88.1649252 158.329419,88.1649252 L159.355817,89.0292109 C159.355817,89.0292109 159.258422,89.2005714 159.078615,89.4123401 C158.524959,90.0678503 157.231846,91.2052653 155.651042,89.8732925 L153.600493,88.1439728 Z" id="Fill-61" fill="#4C8F22"></path>
            <path d="M159.656994,81.7757959 C159.025422,81.393415 158.323425,81.5415782 157.980293,82.0676327 C157.551753,82.7246395 157.643155,83.4474966 158.198309,84.0102177 L159.656994,81.7757959 Z M156.987608,81.4218503 C157.951824,79.9447075 159.562595,79.8414422 160.929878,80.7311701 C161.081965,80.8291973 161.386888,81.070898 161.386888,81.070898 L159.062882,84.6313061 C160.040583,85.1229388 160.952354,84.766 161.45956,83.9862721 C162.001229,83.1571565 161.826666,82.1649116 161.826666,82.1649116 L163.067335,82.2090612 C163.067335,82.2090612 163.331801,83.5051156 162.4942,84.7891973 C161.379396,86.4983129 159.451714,86.7564762 157.98329,85.800898 C156.393496,84.766 155.978441,82.968585 156.987608,81.4218503 L156.987608,81.4218503 Z" id="Fill-63" fill="#4C8F22"></path>
            <path d="M161.008319,78.0624354 C160.841998,77.989102 160.725872,78.0429796 160.656946,78.1978776 L160.462155,78.6393741 L159.267937,78.1110748 L159.840323,76.8195102 C160.060586,76.3226395 160.40147,76.1819592 160.799294,76.3578095 L160.964117,76.4311429 C161.086236,76.4850204 161.198615,76.5613469 161.198615,76.5613469 L161.208355,76.538898 C160.83975,76.0854286 160.412708,75.1702585 160.917667,74.0328435 C161.469824,72.7854286 162.440782,72.3559048 163.933181,73.0159048 L166.134319,73.9894422 C166.288654,74.0582857 166.416766,74.008898 166.485692,73.854 L166.679734,73.4125034 L167.863464,73.9355646 L167.27085,75.2720272 C167.036351,75.8018231 166.717194,75.9252925 166.185265,75.6903265 L163.59904,74.5454286 C162.913525,74.2431156 162.371107,74.213932 162.057194,74.9210748 C161.724551,75.671619 161.950808,76.4446122 162.536679,76.9422313 C162.734467,77.1218231 162.973461,77.2677415 163.240175,77.3844762 L165.827149,78.5293741 L165.209811,79.9204626 L161.008319,78.0624354 Z" id="Fill-65" fill="#4C8F22"></path>
            <g id="Group-2" transform="translate(0.000000, 46.000000)" fill="#00492C">
                <path d="M4.86610386,13.9534422 L7.14366013,13.9534422 C8.57237717,13.9534422 9.37626463,12.9948707 9.37626463,11.6569116 C9.37626463,10.3414014 8.55065048,9.38282993 7.14366013,9.38282993 L4.37612958,9.38282993 L4.37612958,13.4625578 C4.37612958,13.7753469 4.55368907,13.9534422 4.86610386,13.9534422 L4.86610386,13.9534422 Z M6.87619711,7.06385034 C8.10338039,7.06385034 8.79563762,6.17187755 8.79563762,5.03446259 C8.79563762,3.89779592 8.12585627,3.07242177 6.83124534,3.07242177 L4.37612958,3.07242177 L4.37612958,7.06385034 L6.87619711,7.06385034 Z M1.45126785,3.07242177 L7.49196142e-05,3.07242177 L7.49196142e-05,0.597795918 L6.85372122,0.597795918 C9.71115531,0.597795918 11.7647019,2.06895238 11.7647019,4.67827211 C11.7647019,6.43976871 10.8049817,7.57643537 9.84451222,8.06731973 L9.84451222,8.11146939 C11.5639174,8.62405442 12.3895315,10.2299048 12.3895315,11.8357551 C12.3895315,15.0018095 9.8669881,16.4288163 6.92039968,16.4288163 L2.96913923,16.4288163 C1.92026463,16.4288163 1.45126785,15.9828299 1.45126785,14.9120136 L1.45126785,3.07242177 Z" id="Fill-67"></path>
                <path d="M20.8044277,14.2877823 C22.6571897,14.2877823 24.197537,12.8607755 24.197537,10.7423401 C24.197537,8.64710204 22.6571897,7.19764626 20.8044277,7.19764626 C18.9741415,7.19764626 17.433045,8.64710204 17.433045,10.7423401 C17.433045,12.8607755 18.9741415,14.2877823 20.8044277,14.2877823 M20.8044277,4.78961905 C24.2866913,4.78961905 27.0549711,7.2642449 27.0549711,10.7423401 C27.0549711,14.2436327 24.2866913,16.6958095 20.8044277,16.6958095 C17.3438907,16.6958095 14.5756109,14.2436327 14.5756109,10.7423401 C14.5756109,7.2642449 17.3438907,4.78961905 20.8044277,4.78961905" id="Fill-69"></path>
                <path d="M36.9655624,9.27110884 C36.9198614,7.91144898 35.982617,6.97457823 34.8221122,6.97457823 C33.3709193,6.97457823 32.3445206,7.84410204 32.0321058,9.27110884 L36.9655624,9.27110884 Z M34.8221122,4.78954422 C38.0811154,4.78954422 39.867199,7.17512245 39.867199,10.1847823 C39.867199,10.5192721 39.8005206,11.2331497 39.8005206,11.2331497 L31.9422023,11.2331497 C32.1654627,13.2400884 33.6383823,14.2877075 35.3577875,14.2877075 C37.1880736,14.2877075 38.5501122,13.0170952 38.5501122,13.0170952 L39.7330929,14.9791361 C39.7330929,14.9791361 37.9919611,16.6957347 35.1570029,16.6957347 C31.3840511,16.6957347 29.0398164,13.9756667 29.0398164,10.7422653 C29.0398164,7.24172109 31.406527,4.78954422 34.8221122,4.78954422 L34.8221122,4.78954422 Z" id="Fill-71"></path>
                <path d="M43.1698055,7.95567347 C43.1698055,7.62118367 42.9907476,7.46478912 42.6783328,7.46478912 L41.785291,7.46478912 L41.785291,5.0575102 L44.3752621,5.0575102 C45.3799341,5.0575102 45.8931334,5.48104762 45.8931334,6.43961905 L45.8931334,7.10859864 C45.8931334,7.53213605 45.8481817,7.82172789 45.8481817,7.82172789 L45.8931334,7.82172789 C46.4063328,6.19417687 47.7683714,4.90036735 49.5095032,4.90036735 C49.7544904,4.90036735 50.0227026,4.94601361 50.0227026,4.94601361 L50.0227026,7.73268027 C50.0227026,7.73268027 49.7327637,7.68778231 49.3304453,7.68778231 C48.1249887,7.68778231 46.7412235,8.37921088 46.2280241,10.0741088 C46.0714421,10.6308435 45.9822878,11.2556735 45.9822878,11.9246531 L45.9822878,16.4286667 L43.1698055,16.4286667 L43.1698055,7.95567347 Z" id="Fill-73"></path>
                <path d="M59.9114923,10.7205646 C59.9114923,8.95906803 58.9952254,7.22002041 57.0982608,7.22002041 C55.5354376,7.22002041 54.2408267,8.49063265 54.2408267,10.7422653 C54.2408267,12.9055986 55.3796048,14.3101565 57.0540582,14.3101565 C58.5269778,14.3101565 59.9114923,13.2400884 59.9114923,10.7205646 M56.5401096,4.78954422 C59.0184505,4.78954422 59.8215887,6.17165306 59.8215887,6.17165306 L59.8665405,6.17165306 C59.8665405,6.17165306 59.8440646,5.88206122 59.8440646,5.50267347 L59.8440646,3.49573469 C59.8440646,3.1612449 59.6657559,3.00559864 59.3533412,3.00559864 L58.4595502,3.00559864 L58.4595502,0.597571429 L61.1611514,0.597571429 C62.2107752,0.597571429 62.6790228,1.0652585 62.6790228,2.11362585 L62.6790228,13.5521293 C62.6790228,13.8641701 62.8573315,14.0430136 63.1697463,14.0430136 L64.0410614,14.0430136 L64.0410614,16.4285918 L61.4286145,16.4285918 C60.4022158,16.4285918 60.0231225,15.9377075 60.0231225,15.2687279 L60.0231225,14.8451905 L59.9781707,14.8451905 C59.9781707,14.8451905 59.0409264,16.6957347 56.4292286,16.6957347 C53.3477849,16.6957347 51.3609167,14.2652585 51.3609167,10.7422653 C51.3609167,7.13022449 53.5260936,4.78954422 56.5401096,4.78954422" id="Fill-75"></path>
                <path d="M73.7280926,9.27110884 C73.68389,7.91144898 72.7458965,6.97457823 71.5853916,6.97457823 C70.1341987,6.97457823 69.1070508,7.84410204 68.794636,9.27110884 L73.7280926,9.27110884 Z M71.5853916,4.78954422 C74.8443949,4.78954422 76.6304785,7.17512245 76.6304785,10.1847823 C76.6304785,10.5192721 76.5638,11.2331497 76.5638,11.2331497 L68.7054817,11.2331497 C68.9287421,13.2400884 70.4016617,14.2877075 72.1210669,14.2877075 C73.9513531,14.2877075 75.3126424,13.0170952 75.3126424,13.0170952 L76.4963723,14.9791361 C76.4963723,14.9791361 74.7552405,16.6957347 71.9202823,16.6957347 C68.1473305,16.6957347 65.8030958,13.9756667 65.8030958,10.7422653 C65.8030958,7.24172109 68.1690572,4.78954422 71.5853916,4.78954422 L71.5853916,4.78954422 Z" id="Fill-77"></path>
                <path d="M79.9327103,7.95567347 C79.9327103,7.62118367 79.7544016,7.46478912 79.4419868,7.46478912 L78.548945,7.46478912 L78.548945,5.0575102 L81.1381669,5.0575102 C82.1428389,5.0575102 82.6560383,5.48104762 82.6560383,6.43961905 L82.6560383,7.10859864 C82.6560383,7.53213605 82.6118357,7.82172789 82.6118357,7.82172789 L82.6560383,7.82172789 C83.1692376,6.19417687 84.5312762,4.90036735 86.2731572,4.90036735 C86.5181444,4.90036735 86.7863566,4.94601361 86.7863566,4.94601361 L86.7863566,7.73268027 C86.7863566,7.73268027 86.4956685,7.68778231 86.0940994,7.68778231 C84.8886428,7.68778231 83.5048775,8.37921088 82.9916781,10.0741088 C82.8350961,10.6308435 82.7451926,11.2556735 82.7451926,11.9246531 L82.7451926,16.4286667 L79.9327103,16.4286667 L79.9327103,7.95567347 Z" id="Fill-79"></path>
                <path d="M89.9102797,3.20666667 L92.3661447,3.20666667 L92.3661447,0.597346939 L89.9102797,0.597346939 L89.9102797,3.20666667 Z M89.7761736,7.95537415 C89.7761736,7.62163265 89.597865,7.4652381 89.284701,7.4652381 L88.3924084,7.4652381 L88.3924084,5.05721088 L91.0940096,5.05721088 C92.142135,5.05721088 92.5894051,5.52489796 92.5894051,6.57326531 L92.5894051,13.5519048 C92.5894051,13.8639456 92.7677138,14.0435374 93.0801286,14.0435374 L93.9731704,14.0435374 L93.9731704,16.4291156 L91.2723183,16.4291156 C90.2226945,16.4291156 89.7761736,15.982381 89.7761736,14.9115646 L89.7761736,7.95537415 Z" id="Fill-81"></path>
                <path d="M97.5221125,3.20666667 L99.9997042,3.20666667 L99.9997042,0.597346939 L97.5221125,0.597346939 L97.5221125,3.20666667 Z M95.1336752,18.6358503 C95.9375627,18.6358503 97.4104823,18.3911565 97.4104823,16.5406122 L97.4104823,7.95537415 C97.4104823,7.62163265 97.2314244,7.4652381 96.9190096,7.4652381 L96.026717,7.4652381 L96.026717,5.05721088 L98.7275691,5.05721088 C99.7996688,5.05721088 100.24619,5.52489796 100.24619,6.57401361 L100.24619,16.7621088 C100.24619,20.5761905 97.053865,21.0446259 95.4902926,21.0446259 C94.9770932,21.0446259 94.6422026,20.9772789 94.6422026,20.9772789 L94.6422026,18.5909524 C94.6422026,18.5909524 94.8437363,18.6358503 95.1336752,18.6358503 L95.1336752,18.6358503 Z" id="Fill-83"></path>
                <path d="M114.531487,13.9534422 L115.960204,13.9534422 C119.130053,13.9534422 121.161124,12.058 121.161124,8.49085714 C121.161124,4.96786395 119.08585,3.07242177 115.960204,3.07242177 L114.040014,3.07242177 L114.040014,13.4625578 C114.040014,13.7753469 114.218323,13.9534422 114.531487,13.9534422 L114.531487,13.9534422 Z M111.115153,3.07242177 L109.664709,3.07242177 L109.664709,0.597795918 L116.116037,0.597795918 C121.004542,0.597795918 124.196867,3.49595918 124.196867,8.49085714 C124.196867,13.4850068 121.004542,16.4288163 116.116037,16.4288163 L112.633024,16.4288163 C111.561674,16.4288163 111.115153,15.9828299 111.115153,14.9120136 L111.115153,3.07242177 Z" id="Fill-84"></path>
                <path d="M134.174811,9.27110884 C134.129859,7.91144898 133.191865,6.97457823 132.03136,6.97457823 C130.580168,6.97457823 129.553769,7.84410204 129.241354,9.27110884 L134.174811,9.27110884 Z M132.03136,4.78954422 C135.290364,4.78954422 137.077196,7.17512245 137.077196,10.1847823 C137.077196,10.5192721 137.00902,11.2331497 137.00902,11.2331497 L129.1522,11.2331497 C129.37546,13.2400884 130.849129,14.2877075 132.567036,14.2877075 C134.398071,14.2877075 135.75936,13.0170952 135.75936,13.0170952 L136.942341,14.9791361 C136.942341,14.9791361 135.20046,16.6957347 132.366251,16.6957347 C128.593299,16.6957347 126.249814,13.9756667 126.249814,10.7422653 C126.249814,7.24172109 128.615775,4.78954422 132.03136,4.78954422 L132.03136,4.78954422 Z" id="Fill-85"></path>
                <path d="M150.602285,13.9534422 L152.879841,13.9534422 C154.308558,13.9534422 155.113195,12.9948707 155.113195,11.6569116 C155.113195,10.3414014 154.286082,9.38282993 152.879841,9.38282993 L150.111561,9.38282993 L150.111561,13.4625578 C150.111561,13.7753469 150.28987,13.9534422 150.602285,13.9534422 L150.602285,13.9534422 Z M152.611629,7.06385034 C153.839561,7.06385034 154.531818,6.17187755 154.531818,5.03446259 C154.531818,3.89779592 153.862786,3.07242177 152.567426,3.07242177 L150.111561,3.07242177 L150.111561,7.06385034 L152.611629,7.06385034 Z M147.187449,3.07242177 L145.736256,3.07242177 L145.736256,0.597795918 L152.589153,0.597795918 C155.446587,0.597795918 157.500883,2.06895238 157.500883,4.67827211 C157.500883,6.43976871 156.541162,7.57643537 155.581442,8.06731973 L155.581442,8.11146939 C157.299349,8.62405442 158.125712,10.2299048 158.125712,11.8357551 C158.125712,15.0018095 155.603169,16.4288163 152.655831,16.4288163 L148.70532,16.4288163 C147.656445,16.4288163 147.187449,15.9828299 147.187449,14.9120136 L147.187449,3.07242177 Z" id="Fill-86"></path>
                <path d="M166.540234,14.2877823 C168.392996,14.2877823 169.932594,12.8607755 169.932594,10.7423401 C169.932594,8.64710204 168.392996,7.19764626 166.540234,7.19764626 C164.709948,7.19764626 163.1696,8.64710204 163.1696,10.7423401 C163.1696,12.8607755 164.709948,14.2877823 166.540234,14.2877823 M166.540234,4.78961905 C170.021748,4.78961905 172.790777,7.2642449 172.790777,10.7423401 C172.790777,14.2436327 170.021748,16.6958095 166.540234,16.6958095 C163.080446,16.6958095 160.312166,14.2436327 160.312166,10.7423401 C160.312166,7.2642449 163.080446,4.78961905 166.540234,4.78961905" id="Fill-87"></path>
                <path d="M182.701368,9.27110884 C182.655668,7.91144898 181.719172,6.97457823 180.558668,6.97457823 C179.107475,6.97457823 178.080327,7.84410204 177.767912,9.27110884 L182.701368,9.27110884 Z M180.558668,4.78954422 C183.816922,4.78954422 185.603754,7.17512245 185.603754,10.1847823 C185.603754,10.5192721 185.537076,11.2331497 185.537076,11.2331497 L177.678758,11.2331497 C177.902018,13.2400884 179.375687,14.2877075 181.093594,14.2877075 C182.924629,14.2877075 184.285169,13.0170952 184.285169,13.0170952 L185.468899,14.9791361 C185.468899,14.9791361 183.728516,16.6957347 180.893558,16.6957347 C177.120606,16.6957347 174.776372,13.9756667 174.776372,10.7422653 C174.776372,7.24172109 177.142333,4.78954422 180.558668,4.78954422 L180.558668,4.78954422 Z" id="Fill-88"></path>
                <path d="M188.906361,7.95567347 C188.906361,7.62118367 188.727303,7.46478912 188.414888,7.46478912 L187.521846,7.46478912 L187.521846,5.0575102 L190.111817,5.0575102 C191.116489,5.0575102 191.629689,5.48104762 191.629689,6.43961905 L191.629689,7.10859864 C191.629689,7.53213605 191.584737,7.82172789 191.584737,7.82172789 L191.629689,7.82172789 C192.142888,6.19417687 193.504927,4.90036735 195.246059,4.90036735 C195.491046,4.90036735 195.759258,4.94601361 195.759258,4.94601361 L195.759258,7.73268027 C195.759258,7.73268027 195.469319,7.68778231 195.067001,7.68778231 C193.862293,7.68778231 192.477779,8.37921088 191.964579,10.0741088 C191.807997,10.6308435 191.718843,11.2556735 191.718843,11.9246531 L191.718843,16.4286667 L188.906361,16.4286667 L188.906361,7.95567347 Z" id="Fill-89"></path>
                <path d="M198.883855,3.20666667 L201.338222,3.20666667 L201.338222,0.597346939 L198.883855,0.597346939 L198.883855,3.20666667 Z M198.749,7.95537415 C198.749,7.62163265 198.571441,7.4652381 198.259026,7.4652381 L197.365235,7.4652381 L197.365235,5.05721088 L200.066836,5.05721088 C201.11646,5.05721088 201.562981,5.52489796 201.562981,6.57326531 L201.562981,13.5519048 C201.562981,13.8639456 201.741289,14.0435374 202.053704,14.0435374 L202.946746,14.0435374 L202.946746,16.4291156 L200.245145,16.4291156 C199.19627,16.4291156 198.749,15.982381 198.749,14.9115646 L198.749,7.95537415 Z" id="Fill-90"></path>
                <path d="M205.89281,7.95567347 C205.89281,7.62118367 205.714501,7.46478912 205.402086,7.46478912 L204.508295,7.46478912 L204.508295,5.0575102 L207.119993,5.0575102 C208.124665,5.0575102 208.616138,5.52519728 208.616138,6.32737415 L208.616138,6.66186395 C208.616138,6.90805442 208.571186,7.1527483 208.571186,7.1527483 L208.616138,7.1527483 C209.107611,6.19417687 210.335543,4.78961905 212.634826,4.78961905 C215.15662,4.78961905 216.608562,6.10512925 216.608562,9.11478912 L216.608562,13.5522041 C216.608562,13.8642449 216.786871,14.0430884 217.099286,14.0430884 L217.991578,14.0430884 L217.991578,16.4286667 L215.291476,16.4286667 C214.218627,16.4286667 213.773604,15.9826803 213.773604,14.9118639 L213.773604,9.69472109 C213.773604,8.31186395 213.415488,7.3757415 211.986771,7.3757415 C210.468151,7.3757415 209.330871,8.33506122 208.928553,9.69472109 C208.77272,10.1631565 208.705292,10.6757415 208.705292,11.2107755 L208.705292,16.4286667 L205.89281,16.4286667 L205.89281,7.95567347 Z" id="Fill-91"></path>
                <path d="M220.803536,7.95567347 C220.803536,7.62118367 220.624478,7.46478912 220.312064,7.46478912 L219.418273,7.46478912 L219.418273,5.0575102 L222.03072,5.0575102 C223.035392,5.0575102 223.526864,5.52519728 223.526864,6.32737415 L223.526864,6.66186395 C223.526864,6.90805442 223.481163,7.1527483 223.481163,7.1527483 L223.526864,7.1527483 C224.017588,6.19417687 225.246269,4.78961905 227.544803,4.78961905 C230.067347,4.78961905 231.51854,6.10512925 231.51854,9.11478912 L231.51854,13.5522041 C231.51854,13.8642449 231.697597,14.0430884 232.010012,14.0430884 L232.902305,14.0430884 L232.902305,16.4286667 L230.201453,16.4286667 C229.129353,16.4286667 228.683581,15.9826803 228.683581,14.9118639 L228.683581,9.69472109 C228.683581,8.31186395 228.326215,7.3757415 226.897498,7.3757415 C225.379626,7.3757415 224.241597,8.33506122 223.839279,9.69472109 C223.682697,10.1631565 223.616019,10.6757415 223.616019,11.2107755 L223.616019,16.4286667 L220.803536,16.4286667 L220.803536,7.95567347 Z" id="Fill-92"></path>
            </g>
        </g>
    </g>
</svg>
